<?xml version="1.0" encoding="utf-8"?>
<!-- Generator: Adobe Illustrator 16.0.0, SVG Export Plug-In . SVG Version: 6.00 Build 0)  -->
<!DOCTYPE svg PUBLIC "-//W3C//DTD SVG 1.1//EN" "http://www.w3.org/Graphics/SVG/1.1/DTD/svg11.dtd">
<svg version="1.1" id="Layer_1" xmlns:v="https://vecta.io/nano"
	 xmlns="http://www.w3.org/2000/svg" xmlns:xlink="http://www.w3.org/1999/xlink" x="0px" y="0px" width="170.079px"
	 height="73.701px" viewBox="-35.04 -21.851 170.079 73.701" enable-background="new -35.04 -21.851 170.079 73.701"
	 xml:space="preserve">
<g>
	<polyline fill="#FFFFFF" points="1527.492,191.973 1521.822,189.634 1533.018,181.23 1535.391,187.879 1527.498,191.973 	"/>
	<polygon fill="#FFFFFF" points="1517.541,212.412 1517.541,198.25 1522.939,199.689 1522.939,209.137 	"/>
	<polygon fill="#FFFFFF" points="1503.093,190.07 1503.093,190.07 1516.374,196.07 1519.763,189.633 1506.813,182.115 	"/>
	<path fill="#FFFFFF" d="M1537.421,209.135h-8.762v-3.408h8.919v-1.283h-5.471c-2.141-0.182-3.281-1.33-3.452-3.481v-1.219
		c0.163-2.16,1.409-3.183,3.452-3.377h8.865v3.407l-8.91-0.006v1.276h5.357c2.264,0.138,3.458,1.204,3.563,3.399v1.242
		C1540.83,207.748,1539.645,208.956,1537.421,209.135"/>
	<rect x="1542.216" y="196.361" fill="#FFFFFF" width="3.405" height="12.781"/>
	<path fill="#FFFFFF" d="M1558.91,209.143l-4.342-11.287c-0.18-0.494-0.441-0.869-0.783-1.119c-0.348-0.247-0.752-0.373-1.199-0.373
		h-0.02c-0.448,0-0.854,0.126-1.201,0.376c-0.34,0.247-0.604,0.622-0.78,1.114l-4.344,11.289h3.586l2.577-6.656
		c0.027-0.066,0.094-0.115,0.172-0.115s0.145,0.049,0.173,0.115l2.576,6.656H1558.91z"/>
</g>
<g>
	<rect x="1354.951" y="196.413" fill="#FFFFFF" width="3.391" height="12.667"/>
	<rect x="1359.563" y="196.413" fill="#FFFFFF" width="3.393" height="12.667"/>
	<path fill="#FFFFFF" d="M1353.695,199.869v-3.451h-8.969c-3.395,0-3.361,3.451-3.361,3.451v1.152c0,3.373,3.361,3.451,3.361,3.451
		h5.605v1.149h-8.968v3.451h8.968c3.362,0,3.362-3.451,3.362-3.451v-1.149c0-3.445-3.362-3.451-3.362-3.451h-5.605v-1.152H1353.695z
		"/>
	<path fill="#FFFFFF" d="M1376.54,199.869v-3.451h-8.967c-3.397,0-3.363,3.451-3.363,3.451v1.152c0,3.373,3.363,3.451,3.363,3.451
		h5.604v1.149h-8.967v3.451h8.967c3.363,0,3.363-3.451,3.363-3.451v-1.149c0-3.445-3.363-3.451-3.363-3.451h-5.604v-1.152H1376.54z"
		/>
	<polygon fill="#FFFFFF" points="1319.508,182.127 1315.795,190.084 1329.091,196.087 1332.439,189.654 	"/>
	<polygon fill="#FFFFFF" points="1334.496,189.621 1340.133,191.941 1348.092,187.863 1345.704,181.23 	"/>
	<polygon fill="#FFFFFF" points="1330.251,198.275 1335.624,199.667 1335.624,209.08 1330.251,212.412 	"/>
</g>
<g>
	<polyline fill="#FFFFFF" points="1091.184,191.973 1085.515,189.633 1096.709,181.23 1099.083,187.878 1091.189,191.973 	"/>
	<polygon fill="#FFFFFF" points="1081.233,212.412 1081.233,198.249 1086.633,199.689 1086.633,209.137 	"/>
	<polygon fill="#FFFFFF" points="1066.785,190.07 1066.785,190.07 1080.066,196.07 1083.454,189.633 1070.505,182.115 	"/>
	<path fill="#FFFFFF" d="M1101.112,209.135h-8.763v-3.408h8.921v-1.283h-5.471c-2.141-0.182-3.281-1.33-3.452-3.481v-1.219
		c0.161-2.16,1.409-3.183,3.452-3.377h8.864v3.407l-8.911-0.006v1.275h5.358c2.265,0.139,3.458,1.205,3.563,3.4v1.242
		C1104.521,207.747,1103.336,208.955,1101.112,209.135"/>
	<rect x="1105.908" y="196.361" fill="#FFFFFF" width="3.404" height="12.781"/>
</g>
<g>
	<polyline fill="#449AD5" points="42.025,3.976 29.139,-1.335 54.582,-20.433 59.976,-5.328 42.039,3.976 	"/>
	<polygon fill="#449AD5" points="19.408,50.434 19.408,18.248 31.682,21.52 31.682,42.988 	"/>
	<polygon fill="#30519E" points="-13.431,-0.346 -13.431,-0.346 16.757,13.29 24.459,-1.335 -4.975,-18.426 	"/>
	<path fill="#323745" d="M64.59,42.988H44.68V35.24h20.272v-2.914H52.52c-4.866-0.418-7.459-3.025-7.851-7.922v-2.764
		c0.375-4.91,3.207-7.236,7.851-7.681h20.147v7.746l-20.252-0.012v2.898H64.59c5.146,0.311,7.863,2.738,8.104,7.729v2.822
		C72.343,39.832,69.648,42.58,64.59,42.988"/>
	<rect x="75.488" y="13.951" fill="#323745" width="7.742" height="29.053"/>
	<path fill="#323745" d="M113.43,43.004l-9.864-25.658c-0.41-1.117-1.001-1.973-1.782-2.541c-0.786-0.566-1.71-0.854-2.725-0.854
		h-0.041c-1.022,0-1.941,0.288-2.732,0.856c-0.775,0.565-1.375,1.421-1.776,2.539l-9.873,25.658h8.154l5.849-15.127
		c0.065-0.154,0.214-0.27,0.393-0.27s0.33,0.115,0.398,0.27l5.854,15.127H113.43z"/>
</g>
</svg>
