<?xml version="1.0" encoding="utf-8"?>
<!-- Generator: Adobe Illustrator 16.0.0, SVG Export Plug-In . SVG Version: 6.00 Build 0)  -->
<!DOCTYPE svg PUBLIC "-//W3C//DTD SVG 1.1//EN" "http://www.w3.org/Graphics/SVG/1.1/DTD/svg11.dtd">
<svg version="1.1" id="Layer_1" xmlns:v="https://vecta.io/nano"
	 xmlns="http://www.w3.org/2000/svg" xmlns:xlink="http://www.w3.org/1999/xlink" x="0px" y="0px" width="1899.21px"
	 height="623.621px" viewBox="0 0 1899.21 623.621" enable-background="new 0 0 1899.21 623.621" xml:space="preserve">
<path fill="#323745" d="M1728.218,442.338v39.494c0,17.571,8.388,26.399,25.182,26.399h56.828V488.48H1753.4
	c-4.172,0-6.288-2.21-6.288-6.647v-39.494c0-4.372,2.116-6.618,6.288-6.618h56.828v-19.732H1753.4
	C1736.606,415.988,1728.218,424.758,1728.218,442.338"/>
<path fill="#323745" d="M1345.073,426.426v2.741v51.016l-38.693-53.281c-1.101-1.518-2.171-3.054-3.182-4.495
	c-1.023-1.461-1.995-2.627-2.982-3.48c-0.986-0.938-2.066-1.65-3.404-2.199c-1.28-0.503-2.824-0.778-4.607-0.778
	c-2.328,0-4.484,0.579-6.453,1.754c-1.991,1.139-3.456,2.675-4.31,4.533c-0.735,1.659-1.105,3.991-1.105,6.932v69.743l0.052,0.038
	v9.207h4.495h9.782h4.564v-9.245v-24.123v-28.837l37.808,51.519c1.08,1.413,2.143,2.816,3.2,4.229
	c1.123,1.355,2.261,2.541,3.541,3.585c1.267,1.033,2.627,1.763,4.098,2.237c1.432,0.474,3.057,0.711,4.868,0.711
	c7.244,0,10.871-3.992,10.871-11.9v-67.164v-2.741v-10.478h-18.542V426.426z"/>
<path fill="#323745" d="M1819.649,442.348v3.281c0,17.552,8.567,26.37,25.674,26.37h32.089c4.276,0,6.408,2.182,6.408,6.58v3.272
	c0,4.4-2.132,6.58-6.408,6.58h-57.763v19.8h57.763c17.135,0,25.678-8.762,25.678-26.38v-3.272c0-17.58-8.543-26.37-25.678-26.37
	h-32.089c-4.276,0-6.364-2.181-6.364-6.58v-3.281c0-4.391,2.088-6.609,6.364-6.609h57.767v-19.751h-57.767
	C1828.216,415.988,1819.649,424.767,1819.649,442.348"/>
<path fill="#323745" d="M1033.555,442.348v3.281c0,17.552,8.565,26.37,25.674,26.37h32.087c4.276,0,6.413,2.182,6.413,6.58v3.272
	c0,4.4-2.137,6.58-6.413,6.58h-57.761v19.8h57.761c17.131,0,25.682-8.762,25.682-26.38v-3.272c0-17.58-8.551-26.37-25.682-26.37
	h-32.087c-4.276,0-6.37-2.181-6.37-6.58v-3.281c0-4.391,2.094-6.609,6.37-6.609h57.769v-19.751h-57.769
	C1042.121,415.988,1033.555,424.767,1033.555,442.348"/>
<rect x="1699.645" y="415.988" fill="#323745" width="19.138" height="92.244"/>
<rect x="1126.421" y="415.988" fill="#323745" width="19.148" height="92.244"/>
<path fill="#323745" d="M1238.305,418.215c-2.038-1.471-4.456-2.228-7.179-2.228c-2.688,0-5.026,0.786-7.111,2.322
	c-2.038,1.517-3.613,3.784-4.746,6.723l-30.874,83.199h20.278l21.05-57.597c0.161-0.815,0.646-1.251,1.403-1.251
	c0.674,0,1.177,0.436,1.441,1.251l21.161,57.597h20.098l-30.832-83.199C1241.879,421.932,1240.315,419.675,1238.305,418.215"/>
<path fill="#323745" d="M1420.03,418.215c-2.042-1.471-4.46-2.228-7.183-2.228c-2.688,0-5.024,0.786-7.111,2.322
	c-2.028,1.517-3.603,3.784-4.74,6.723l-30.876,83.199h20.274l21.05-57.597c0.161-0.815,0.646-1.251,1.403-1.251
	c0.678,0,1.187,0.436,1.441,1.251l21.165,57.597h20.103l-30.841-83.199C1423.602,421.932,1422.036,419.675,1420.03,418.215"/>
<polygon fill="#323745" points="1608.551,435.749 1640.464,435.749 1640.464,508.232 1659.62,508.232 1659.62,435.749 
	1691.484,435.749 1691.484,415.988 1608.551,415.988 "/>
<path fill="#323745" d="M1514.958,415.968h21.949l18.043,34.411c0.656,1.3,1.504,2.333,2.569,3.12
	c1.054,0.777,2.148,1.166,3.272,1.166c1.176,0,2.299-0.389,3.386-1.166c1.072-0.787,1.944-1.82,2.594-3.12l18.104-34.411h21.82
	l-21.43,40.774c-1.64,3.252-3.66,6.021-6.069,8.306c-2.398,2.295-5.243,4.182-8.533,5.652v37.531h-19.667v-37.531
	c-3.295-1.471-6.154-3.357-8.572-5.652c-2.428-2.285-4.467-5.054-6.106-8.306L1514.958,415.968z"/>
<path fill="#323745" d="M1487.167,488.48c-4.168,0-6.292-2.21-6.292-6.647v-29.519v-36.326h-18.89v36.326v29.519
	c0,17.571,8.378,26.399,25.182,26.399h39.157V488.48H1487.167z"/>
<polyline fill="#449AD5" points="384.807,237.442 295.363,200.546 471.918,68.029 509.376,172.867 384.899,237.442 "/>
<polygon fill="#449AD5" points="227.868,559.788 227.868,336.42 313.005,359.14 313.005,508.137 "/>
<polygon fill-rule="evenodd" clip-rule="evenodd" fill="#30519E" points="0,207.449 0,207.449 209.46,302.055 262.884,200.528 
	58.649,81.978 "/>
<path fill-rule="evenodd" clip-rule="evenodd" fill="#323745" d="M541.38,508.1H403.188v-53.737h140.674v-20.265h-86.254
	c-33.758-2.845-51.779-20.956-54.465-54.903v-19.23c2.565-34.069,22.231-50.18,54.465-53.262h139.813v53.747l-140.554-0.066v20.111
	h84.513c35.704,2.162,54.54,18.984,56.202,53.604v19.591C595.155,486.223,576.435,505.273,541.38,508.1"/>
<rect x="617" y="306.654" fill-rule="evenodd" clip-rule="evenodd" fill="#323745" width="53.71" height="201.578"/>
<path fill="#323745" d="M880.287,508.232l-68.47-178.022c-2.826-7.785-6.967-13.712-12.355-17.647
	c-5.472-3.917-11.841-5.908-18.915-5.908h-0.292c-7.079,0-13.449,1.982-18.967,5.936c-5.346,3.907-9.492,9.834-12.304,17.58
	l-68.479,178.062h56.542l40.637-104.989c0.432-1.071,1.484-1.83,2.712-1.83c1.23,0,2.278,0.759,2.709,1.83l40.642,104.989H880.287z"
	/>
</svg>
